<?xml version="1.0" encoding="UTF-8"?>
<svg width="16px" height="16px" viewBox="0 0 16 16" version="1.1" xmlns="http://www.w3.org/2000/svg" xmlns:xlink="http://www.w3.org/1999/xlink">
    <!-- Generator: Sketch 60.1 (88133) - https://sketch.com -->
    <title>shanghu_home_daohang_icon6</title>
    <desc>Created with Sketch.</desc>
    <g id="页面-1" stroke="none" stroke-width="1" fill="none" fill-rule="evenodd">
        <g id="商户后台首页2-无数据稿" transform="translate(-294.000000, -643.000000)" fill="#0D69C5" fill-rule="nonzero">
            <g id="编组-6" transform="translate(281.000000, 79.000000)">
                <g id="shanghu_home_daohang_icon6" transform="translate(13.000000, 564.000000)">
                    <path d="M7.96783626,10.2857143 C6.67777778,10.2857143 5.62865497,9.26057143 5.62865497,8 C5.62865497,6.73942857 6.67777778,5.71428571 7.96783626,5.71428571 C9.25789474,5.71428571 10.3070175,6.73942857 10.3070175,8 C10.3070175,9.26057143 9.25789474,10.2857143 7.96783626,10.2857143 M7.96783626,4.57142857 C6.02999503,4.57142857 4.45906433,6.10645229 4.45906433,8 C4.45906433,9.89354771 6.02999503,11.4285714 7.96783626,11.4285714 C9.90567748,11.4285714 11.4766082,9.89354771 11.4766082,8 C11.4766082,6.10645229 9.90567748,4.57142857 7.96783626,4.57142857" id="形状"></path>
                    <path d="M11.2795322,11.992 C11.0472806,12.1757962 10.7996246,12.3401847 10.5391813,12.4834286 C10.5169591,12.4948571 10.4959064,12.5097143 10.4730994,12.5217143 C10.2720434,12.6264849 10.0641928,12.7182998 9.85087719,12.7965714 L9.49356725,14.1 L9.32397661,14.7177143 C9.31345029,14.72 9.30292398,14.7234286 9.29181287,14.7245714 L9.13216374,14.7537143 C9.06783626,14.7651429 9.00233918,14.7731429 8.9374269,14.7822857 C8.61637985,14.8280887 8.2922845,14.8504364 7.96783626,14.8491959 C7.87251462,14.8491959 7.77660819,14.8468571 7.68128655,14.8434286 L7.52339181,14.8348571 C7.34768718,14.8242842 7.17249421,14.806746 6.99824561,14.7822857 C6.93391813,14.7731429 6.86900585,14.7651429 6.80409357,14.7537143 C6.75077527,14.7447425 6.6975559,14.7352182 6.64444444,14.7251429 L6.6122807,14.7177143 L6.44269006,14.1005714 L6.08479532,12.7965714 C5.78048777,12.6819366 5.48779518,12.5397962 5.21052632,12.372 C5.01776072,12.2570938 4.83277671,12.1301639 4.65672515,11.992 L3.32339181,12.3411429 L2.69181287,12.5068571 L2.67017544,12.4822857 C2.63413125,12.4429332 2.59884245,12.4029262 2.56432749,12.3622857 C2.52222222,12.3125714 2.48187135,12.2611429 2.44093567,12.2102857 C2.33133903,12.0755426 2.22811208,11.935968 2.13157895,11.792 C2.10233918,11.7502857 2.0748538,11.7068571 2.04678363,11.664 C1.94363309,11.5067072 1.84801353,11.3448185 1.76023392,11.1788571 C1.73579472,11.1333759 1.71181693,11.0876594 1.68830409,11.0417143 C1.66023392,10.9862857 1.63216374,10.9308571 1.60584795,10.8748571 C1.55876401,10.7746487 1.51430509,10.6732824 1.47251462,10.5708571 C1.44795322,10.5114286 1.42339181,10.452 1.4,10.3925714 L1.34561404,10.2417143 L1.33625731,10.2114286 L1.79649123,9.76171429 L2.7754386,8.804 C2.73523094,8.56014633 2.7127575,8.31381516 2.70818713,8.06685714 C2.70818713,8.044 2.70467836,8.02228571 2.70467836,8 C2.70467836,7.97714286 2.70818713,7.956 2.70818713,7.93314286 C2.7127575,7.68618484 2.73523094,7.43985367 2.7754386,7.196 L1.79649123,6.23828571 L1.33625731,5.78857143 C1.3567485,5.72793887 1.37799765,5.6675534 1.4,5.60742857 C1.42339181,5.54742857 1.44795322,5.488 1.47251462,5.428 C1.71445005,4.83974515 2.04050037,4.28797081 2.44093567,3.78914286 C2.48187135,3.73828571 2.52222222,3.68742857 2.56374269,3.63771429 C2.59883041,3.59771429 2.63391813,3.55771429 2.67017544,3.51771429 L2.69181287,3.49314286 L3.32339181,3.65885714 L4.65672515,4.00742857 C4.83157895,3.86857143 5.01754386,3.74457143 5.21052632,3.62742857 L5.28479532,3.58342857 C5.53982796,3.43459996 5.80747959,3.30746543 6.08479532,3.20342857 L6.44269006,1.89942857 L6.6122807,1.28228571 L6.64444444,1.27485714 C6.69707602,1.26514286 6.7497076,1.25485714 6.80350877,1.24628571 C6.86783626,1.23542857 6.93450292,1.22628571 7,1.21771429 C7.11111111,1.20228571 7.22222222,1.18914286 7.33508772,1.17828571 C7.45066788,1.16826874 7.56649726,1.16121869 7.68245614,1.15714286 C7.77719298,1.15314286 7.87251462,1.15028571 7.96783626,1.15028571 C8.06315789,1.15028571 8.15906433,1.15314286 8.25380117,1.15714286 C8.36976005,1.16121869 8.48558943,1.16826874 8.60116959,1.17828571 C8.7122807,1.18857143 8.8245614,1.20228571 8.93567251,1.21828571 C9.00175439,1.22628571 9.06725146,1.23542857 9.13274854,1.24571429 L9.29181287,1.27485714 L9.32397661,1.28171429 L9.49356725,1.89942857 L9.8502924,3.20285714 C10.0643275,3.28342857 10.2736842,3.372 10.4730994,3.47771429 C10.4959064,3.48971429 10.5169591,3.50457143 10.5391813,3.51657143 C10.8005848,3.66057143 11.0479532,3.824 11.2795322,4.008 L12.6128655,3.65828571 L13.2438596,3.49314286 L13.2660819,3.51714286 C13.3011696,3.55714286 13.3374269,3.59714286 13.371345,3.63771429 C13.4134503,3.68685714 13.4532164,3.73828571 13.494152,3.78857143 C13.5643275,3.87542857 13.6321637,3.96342857 13.6976608,4.05371429 C13.7339181,4.104 13.7690058,4.15542857 13.8040936,4.20628571 L13.8894737,4.33542857 C14.0207753,4.53634411 14.140456,4.7442889 14.2479532,4.95828571 C14.3254926,5.11244942 14.3972749,5.26931477 14.4631579,5.42857143 C14.4877193,5.488 14.5128655,5.54742857 14.5362573,5.608 C14.5549708,5.65771429 14.5725146,5.70742857 14.5900585,5.75771429 C14.5935673,5.768 14.5959064,5.77828571 14.6,5.78857143 L14.1397661,6.23828571 L13.1602339,7.19542857 C13.1953216,7.41085714 13.2169591,7.63028571 13.2239766,7.85428571 C13.2251462,7.90285714 13.2309942,7.95142857 13.2309942,8 C13.2309942,8.04914286 13.2251462,8.09714286 13.2239766,8.14571429 C13.2168521,8.36625441 13.1953661,8.58612766 13.1596491,8.804 L14.1397661,9.76171429 L14.6,10.2114286 L14.5900585,10.2417143 C14.5725146,10.292 14.5549708,10.3417143 14.5362573,10.3914286 C14.5128655,10.452 14.4883041,10.5114286 14.4631579,10.5714286 C14.3976009,10.7308206 14.3258133,10.8876978 14.2479532,11.0417143 C14.1818241,11.1712105 14.1120114,11.2988792 14.0385965,11.4245714 C13.9906433,11.5057143 13.9403509,11.5851429 13.8894737,11.6645714 C13.8614035,11.7068571 13.8333333,11.7502857 13.8046784,11.792 C13.7079696,11.936174 13.6045472,12.0759398 13.4947368,12.2108571 C13.4538012,12.2622857 13.4128655,12.3125714 13.3719298,12.3617143 C13.3368421,12.4028571 13.3017544,12.4422857 13.2660819,12.4822857 C13.2590643,12.4908571 13.251462,12.4982857 13.2438596,12.5062857 L12.6122807,12.3411429 L11.2789474,11.9925714 L11.2795322,11.992 Z M5.70350877,14.4862091 C5.65555556,14.4691359 5.60701754,14.4532822 5.55964912,14.4349895 L5.49883041,14.4118188 L5.4380117,14.3874286 C5.52748538,14.4240139 5.61812865,14.4557213 5.70877193,14.4874286 L5.70292398,14.4862091 L5.70350877,14.4862091 Z M3.52105263,13.2948571 L3.47251462,13.2548571 C3.43333333,13.2222857 3.39532164,13.1885714 3.35672515,13.1554286 L3.35263158,13.152 C3.4251462,13.2148571 3.49766082,13.2765714 3.57309942,13.3354286 L3.52046784,13.2954286 L3.52105263,13.2948571 Z M14.9204678,8.908 L14.9169591,8.90514286 L14.9152047,8.90285714 L14.9146199,8.90285714 L14.3812865,8.38114286 C14.3888889,8.25428571 14.4005848,8.12857143 14.4005848,8 C14.4005848,7.87085714 14.3888889,7.74514286 14.3812865,7.61828571 L14.9146199,7.09714286 L14.9169591,7.09485714 L14.9204678,7.09142857 L15.9204678,6.11428571 C15.8322528,5.76571622 15.7199084,5.4234045 15.5842105,5.08971429 C15.436951,4.71410804 15.2610172,4.34984457 15.0578947,4 C14.8491228,3.64571429 14.6087719,3.32 14.3555556,3.00971429 C14.1275127,2.72811317 13.8803676,2.46179932 13.6157895,2.21257143 L12.2497076,2.57028571 L12.248538,2.57085714 L12.2444444,2.572 L12.2415205,2.57257143 L12.2409357,2.57257143 L11.5204678,2.76114286 C11.3004903,2.62020622 11.071787,2.49272386 10.8356725,2.37942857 L10.6415205,1.67085714 L10.6409357,1.66971429 L10.6403509,1.66685714 L10.6391813,1.66285714 L10.6391813,1.66171429 L10.2730994,0.326857143 C9.92005765,0.227526095 9.5605695,0.151544592 9.19707602,0.0994285714 C8.79046991,0.0361386084 8.37955816,0.00290150572 7.96783626,0 C7.54912281,0 7.14093567,0.04 6.73918129,0.0994285714 C6.37192982,0.153714286 6.0122807,0.226857143 5.66315789,0.326857143 L5.29707602,1.66171429 L5.29649123,1.66285714 L5.29532164,1.66685714 L5.29473684,1.66971429 L5.29473684,1.67085714 L5.1,2.37942857 C4.86374269,2.49485714 4.63391813,2.62 4.41520468,2.76228571 L3.69532164,2.57371429 L3.69415205,2.57257143 L3.69122807,2.57257143 L3.6871345,2.57085714 L3.68596491,2.57085714 L2.32046784,2.21257143 C2.05672515,2.45828571 1.81169591,2.72685714 1.58070175,3.00971429 C1.32117947,3.32202163 1.08620135,3.65306094 0.877777778,4 C0.668421053,4.35428571 0.5,4.72 0.351461988,5.08971429 C0.21590336,5.42350866 0.103370936,5.76579814 0.014619883,6.11428571 L1.01461988,7.09142857 L1.01461988,7.09257143 L1.01871345,7.09542857 L1.02046784,7.09771429 L1.02046784,7.09828571 L1.55438596,7.61942857 C1.54678363,7.74571429 1.53508772,7.87142857 1.53508772,8 C1.53508772,8.12857143 1.54678363,8.25371429 1.55497076,8.38057143 L1.02163743,8.90171429 L1.02105263,8.90228571 L1.01929825,8.90457143 L1.01578947,8.908 L1.01520468,8.90857143 L0.014619883,9.88571429 C0.100584795,10.2308571 0.215789474,10.5725714 0.350877193,10.9097143 C0.499415205,11.2794286 0.667836257,11.6457143 0.877192982,12 C1.08654971,12.3542857 1.32631579,12.68 1.58011696,12.9897143 C1.81169591,13.2731429 2.05614035,13.5411429 2.31988304,13.7868571 L3.68538012,13.4291429 L3.68654971,13.4291429 L3.69064327,13.428 L3.69356725,13.4268571 L3.69473684,13.4268571 L4.41403509,13.2382857 C4.63333333,13.38 4.86315789,13.5045714 5.0994152,13.62 L5.29415205,14.3291429 L5.29415205,14.3331429 L5.29590643,14.3371429 L5.29590643,14.3377143 L5.6625731,15.6725714 C6.01169591,15.7725714 6.37134503,15.8462857 6.73859649,15.9 C7.14479824,15.9634543 7.55531924,15.9968824 7.96666667,16 C8.38654971,16 8.79415205,15.96 9.19649123,15.9 C9.56003582,15.8481597 9.91954294,15.7721742 10.2725146,15.6725714 L10.6385965,14.3377143 L10.6397661,14.3331429 L10.6409357,14.3297143 L10.8350877,13.6211429 C11.071345,13.5051429 11.3011696,13.38 11.5192982,13.2382857 L12.2403509,13.4268571 L12.2403509,13.4274286 L12.2438596,13.428 L12.2479532,13.4291429 L12.2491228,13.4291429 L13.6152047,13.7868571 C13.8783626,13.5411429 14.1233918,13.2731429 14.3549708,12.9897143 C14.614498,12.677483 14.8496622,12.3466479 15.0584795,12 C15.2678363,11.6457143 15.4356725,11.28 15.5842105,10.9097143 C15.719883,10.5725714 15.8350877,10.2314286 15.9210526,9.88571429 L14.9210526,8.90857143 L14.9204678,8.90857143 L14.9204678,8.908 Z" id="形状"></path>
                </g>
            </g>
        </g>
    </g>
</svg>