<?xml version="1.0" encoding="UTF-8"?>
<svg width="18px" height="18px" viewBox="0 0 18 18" version="1.1" xmlns="http://www.w3.org/2000/svg" xmlns:xlink="http://www.w3.org/1999/xlink">
    <!-- Generator: Sketch 60.1 (88133) - https://sketch.com -->
    <title>shanghu_home_daohang_icon3</title>
    <desc>Created with Sketch.</desc>
    <defs>
        <polygon id="path-1" points="1.77635684e-15 0.0709668639 17.9518437 0.0709668639 17.9518437 16.0828402 1.77635684e-15 16.0828402"></polygon>
    </defs>
    <g id="页面-1" stroke="none" stroke-width="1" fill="none" fill-rule="evenodd">
        <g id="商户后台首页2-无数据稿" transform="translate(-293.000000, -378.000000)">
            <g id="编组-6" transform="translate(281.000000, 79.000000)">
                <g id="shanghu_home_daohang_icon3" transform="translate(12.000000, 299.000000)">
                    <g id="编组" transform="translate(0.000000, 0.035574)">
                        <mask id="mask-2" fill="white">
                            <use xlink:href="#path-1"></use>
                        </mask>
                        <g id="Clip-2"></g>
                        <path d="M11.0103337,10.9243278 C11.7344876,10.4898781 12.4820734,10.044245 13.221884,9.74846982 C13.4285112,9.65144024 13.6499432,9.56857633 13.8754225,9.50435148 C14.6608189,8.52361775 15.057671,7.29216213 14.9932331,6.03280118 C14.8558367,3.35005562 12.6421562,1.21508521 9.95344615,1.17226864 C9.92532781,1.1718426 9.89774201,1.17162959 9.86973018,1.17162959 C7.04096095,1.17162959 4.73962195,3.47296686 4.73962195,6.30173609 C4.73898462,7.07232781 4.91632189,7.84451716 5.25310296,8.53767692 L11.0103337,10.9243278 Z M9.79613254,14.9729432 L16.5841562,11.2840083 C16.2277775,10.9301858 15.6174817,10.3705882 14.8114225,10.3705882 C14.4656947,10.3705882 14.1135763,10.476671 13.7646533,10.6860675 C12.4309491,11.4271562 10.4909964,12.4719018 10.4715053,12.4824462 C10.431671,12.5023633 9.54754083,12.9373456 8.31193136,12.9373456 C7.90091361,12.9373456 7.49532781,12.888032 7.10657041,12.7907893 L4.85582485,12.3407893 L4.84251124,12.3347183 C4.6259787,12.2887065 4.46962367,12.1042331 4.4603574,11.8817361 C4.45332781,11.7019491 4.55962367,11.5262095 4.73110296,11.4339728 C4.79916213,11.3972272 4.87073609,11.3786947 4.94369467,11.3786947 C4.97788402,11.3786947 5.01207337,11.382529 5.04817988,11.3905172 C5.12348166,11.4042568 5.47517396,11.4730615 7.30254675,11.8357243 C7.79919763,11.8995231 8.21128047,11.9311562 8.55519763,11.9311562 C9.18210888,11.9311562 9.53752899,11.8236888 9.84310296,11.6783041 L4.12091361,9.24851716 L3.9408071,9.24851716 L3.9408071,14.9729432 L9.79613254,14.9729432 Z M1.17157633,9.24851716 C1.13238107,9.24851716 1.10053491,9.2802568 1.10053491,9.31955858 L1.10053491,14.9112746 C1.10053491,14.9503633 1.13238107,14.9822095 1.17157633,14.9822095 L2.76920947,14.9822095 C2.80840473,14.9822095 2.84025089,14.9503633 2.84025089,14.9112746 L2.84025089,9.31955858 C2.84025089,9.2802568 2.80840473,9.24851716 2.76920947,9.24851716 L1.17157633,9.24851716 Z M0.28403787,16.0828722 C0.127363314,16.0828722 -2.13017751e-05,15.9553811 -2.13017751e-05,15.798813 L-2.13017751e-05,8.43191361 C-2.13017751e-05,8.27534556 0.127363314,8.14796095 0.28403787,8.14796095 L3.91950533,8.14796095 C3.73332781,7.54959408 3.63906746,6.92928639 3.63906746,6.30173609 C3.63906746,4.65713254 4.27396686,3.10572426 5.42703195,1.93316805 C6.57860592,0.762209467 8.11616805,0.101215385 9.75672426,0.0719254438 C9.79389586,0.0712863905 9.83064142,0.0709668639 9.8676,0.0709668639 C13.1892923,0.0709668639 15.9836592,2.76862367 16.0968781,6.08445799 C16.1366059,7.2461503 15.8554225,8.38398462 15.2829373,9.38623314 C16.4734935,9.5334284 17.3761562,10.2963515 17.8345704,10.9841858 C17.9494935,11.1272272 18.0128663,11.4435586 17.8673751,11.7820438 C17.8441562,11.8356178 17.8019787,11.8813101 17.7484047,11.9109195 L10.149529,16.0828722 L0.28403787,16.0828722 Z" id="Fill-1" fill="#0D69C5" mask="url(#mask-2)"></path>
                    </g>
                    <path d="M12.5503121,3.66056805 C12.5503121,3.58473373 12.5208092,3.51337278 12.4671287,3.45969231 L12.0906198,3.08307692 C12.0369394,3.02950296 11.9655784,3 11.8897441,3 C11.8139098,3 11.7425488,3.02950296 11.6889749,3.08318343 L10.2750695,4.49708876 L8.86116421,3.08307692 C8.80748373,3.02950296 8.73622929,3 8.66039498,3 C8.58456066,3 8.51330622,3.02950296 8.45962574,3.08318343 L8.08290385,3.45969231 C7.97234764,3.57046154 7.97234764,3.75067456 8.08301036,3.86133728 L8.84572042,4.62404734 L8.41116421,4.62404734 C8.25448965,4.62404734 8.12710503,4.75153846 8.12710503,4.90810651 L8.12710503,5.44065089 C8.12710503,5.59732544 8.25448965,5.72471006 8.41116421,5.72471006 L9.72484468,5.72471006 L9.72484468,6.3024142 L8.41116421,6.3024142 C8.25448965,6.3024142 8.12710503,6.42979882 8.12710503,6.58647337 L8.12710503,7.11901775 C8.12710503,7.2755858 8.25448965,7.40297041 8.41116421,7.40297041 L9.72484468,7.40297041 L9.72484468,8.64795266 C9.72484468,8.80462722 9.85222929,8.93201183 10.0087973,8.93201183 L10.5413417,8.93201183 C10.6979098,8.93201183 10.8254009,8.80462722 10.8254009,8.64795266 L10.8254009,7.40297041 L12.1389749,7.40297041 C12.2955429,7.40297041 12.423034,7.2755858 12.423034,7.11901775 L12.423034,6.58647337 C12.423034,6.42979882 12.2955429,6.3024142 12.1389749,6.3024142 L10.8254009,6.3024142 L10.8254009,5.72471006 L12.1389749,5.72471006 C12.2955429,5.72471006 12.423034,5.59732544 12.423034,5.44065089 L12.423034,4.90810651 C12.423034,4.75153846 12.2955429,4.62404734 12.1389749,4.62404734 L11.7045252,4.62404734 L12.4671287,3.86144379 C12.5208092,3.80776331 12.5503121,3.73640237 12.5503121,3.66056805" id="Fill-3" fill="#0D69C5"></path>
                </g>
            </g>
        </g>
    </g>
</svg>