<?xml version="1.0" encoding="UTF-8"?>
<svg width="16px" height="16px" viewBox="0 0 16 16" version="1.1" xmlns="http://www.w3.org/2000/svg" xmlns:xlink="http://www.w3.org/1999/xlink">
    <!-- Generator: Sketch 60.1 (88133) - https://sketch.com -->
    <title>shanghu_home_daohang_icon2</title>
    <desc>Created with Sketch.</desc>
    <defs>
        <polygon id="path-1" points="0.00237330037 0.0164478422 15.9850106 0.0164478422 15.9850106 15.996798 0.00237330037 15.996798"></polygon>
    </defs>
    <g id="页面-1" stroke="none" stroke-width="1" fill="none" fill-rule="evenodd">
        <g id="商户后台首页2-无数据稿" transform="translate(-294.000000, -196.000000)">
            <g id="编组-6" transform="translate(281.000000, 79.000000)">
                <g id="shanghu_home_daohang_icon2" transform="translate(13.000000, 117.000000)">
                    <mask id="mask-2" fill="white">
                        <use xlink:href="#path-1"></use>
                    </mask>
                    <g id="Clip-2"></g>
                    <path d="M8.01050383,8.00843798 C5.30053103,8.00843798 3.69794017,5.70842318 3.40404648,3.02326412 C3.38559407,2.85353785 3.44120841,2.68237139 3.55647169,2.55385845 C3.67375229,2.42366856 3.84132707,2.3489164 4.01637775,2.3489164 C4.32787342,2.3489164 4.58792781,2.58065006 4.62152979,2.88798422 C4.846578,4.95342441 5.92599456,6.78602614 8.01050383,6.78602614 C10.095646,6.78602614 11.157065,4.95342441 11.3821132,2.88798422 C11.4157943,2.58065006 11.6757498,2.3489164 11.9873246,2.3489164 C12.1623951,2.3489164 12.3298116,2.42366856 12.4468351,2.55385845 C12.5624346,2.68237139 12.6180489,2.85361677 12.5994977,3.02326412 C12.305248,5.70842318 10.7204964,8.00843798 8.01050383,8.00843798 L8.01050383,8.00843798 Z M1.18232089,11.4837129 L14.8030082,11.4837129 L14.8030082,1.19589051 L1.18232089,1.19589051 L1.18232089,11.4837129 Z M1.18210334,14.0721223 C1.18210334,14.4832296 1.47095377,14.8177302 1.82625661,14.8177302 L14.1589933,14.8177302 C14.5140588,14.8177302 14.8030082,14.4832296 14.8030082,14.0721223 L14.8030082,12.7018239 L1.18210334,12.7018239 L1.18210334,14.0721223 Z M1.82625661,15.996798 C0.819304821,15.996798 1.97775031e-06,15.1333899 1.97775031e-06,13.7417253 L0.000239307787,1.02261307 C0.000239307787,0.471609371 0.485717676,0.0164478422 1.08250383,0.0164478422 L14.9027461,0.0164478422 C15.4994532,0.0164478422 15.9850106,0.398159309 15.9850106,1.02261307 L15.9850106,13.7417253 C15.9850106,15.1333899 15.1657869,15.996798 14.1589933,15.996798 L1.82625661,15.996798 Z" id="Fill-1" fill="#0D69C5" mask="url(#mask-2)"></path>
                </g>
            </g>
        </g>
    </g>
</svg>