<?xml version="1.0" encoding="UTF-8"?>
<svg width="18px" height="18px" viewBox="0 0 18 18" version="1.1" xmlns="http://www.w3.org/2000/svg" xmlns:xlink="http://www.w3.org/1999/xlink">
    <!-- Generator: Sketch 60.1 (88133) - https://sketch.com -->
    <title>shanghu_home_daohang_icon5</title>
    <desc>Created with Sketch.</desc>
    <g id="页面-1" stroke="none" stroke-width="1" fill="none" fill-rule="evenodd">
        <g id="商户后台首页2-无数据稿" transform="translate(-292.000000, -563.000000)" fill="#0D69C5" fill-rule="nonzero">
            <g id="编组-6" transform="translate(281.000000, 79.000000)">
                <g id="shanghu_home_daohang_icon5" transform="translate(11.000000, 484.000000)">
                    <path d="M16.065,9.11571429 L14.5478571,10.6341429 C14.5202143,10.728 14.4880714,10.8192857 14.4565714,10.9105714 C14.3774622,11.1365631 14.2840594,11.3572943 14.1769286,11.5714286 C14.1653571,11.5952143 14.1550714,11.6196429 14.1428571,11.6421429 L14.1428571,14.1428571 L11.6421429,14.1428571 L11.5707857,14.1775714 C11.358,14.2836429 11.1375,14.3768571 10.9099286,14.4565714 C10.8186429,14.4880714 10.7273571,14.5202143 10.6335,14.5478571 L9.11571429,16.065 C9.0765,16.0662857 9.03857143,16.0714286 8.99935714,16.0714286 C8.96014286,16.0714286 8.92221429,16.0662857 8.88364286,16.065 L7.36585714,14.5478571 C7.272,14.5202143 7.18071429,14.4880714 7.08878571,14.4565714 C6.86318519,14.3772395 6.6426948,14.2840624 6.42857143,14.1775714 C6.40542857,14.1647143 6.381,14.1550714 6.35721429,14.1428571 L3.85714286,14.1428571 L3.85714286,11.6421429 L3.82307143,11.5714286 C3.71644393,11.3573679 3.62326325,11.136869 3.54407143,10.9112143 C3.51192857,10.8192857 3.47978571,10.728 3.45214286,10.6341429 L1.935,9.11571429 C1.93435714,9.07714286 1.92857143,9.03857143 1.92857143,9 C1.92857143,8.96142857 1.93435714,8.92285714 1.935,8.88428571 L3.45214286,7.3665 C3.47978571,7.27264286 3.51192857,7.18135714 3.54407143,7.08942857 C3.62378571,6.8625 3.717,6.642 3.82307143,6.42857143 L3.85714286,6.35721429 L3.85714286,3.85714286 L6.35721429,3.85714286 C6.381,3.84557143 6.40542857,3.83464286 6.42792857,3.82307143 C6.642,3.717 6.8625,3.62378571 7.08942857,3.54407143 C7.18135714,3.51192857 7.27264286,3.47978571 7.36585714,3.45214286 L8.88428571,1.935 C8.92285714,1.93435714 8.96078571,1.92857143 9,1.92857143 C9.03857143,1.92857143 9.07714286,1.93435714 9.11571429,1.935 L10.6341429,3.45214286 C10.728,3.47978571 10.8192857,3.51192857 10.9105714,3.54407143 C11.1381429,3.62378571 11.3586429,3.717 11.5714286,3.82307143 L11.6421429,3.85714286 L14.1428571,3.85714286 L14.1428571,6.35721429 C14.1550714,6.381 14.1653571,6.40542857 14.1769286,6.42792857 C14.2836429,6.642 14.3762143,6.8625 14.4565714,7.08942857 C14.4880714,7.18135714 14.5202143,7.27264286 14.5478571,7.36585714 L16.065,8.88428571 C16.0662857,8.92285714 16.0714286,8.96078571 16.0714286,9 C16.0714286,9.03857143 16.0662857,9.07714286 16.065,9.11571429 Z M17.091,8.091 L15.6683571,6.66835714 C15.5976107,6.46593134 15.5175977,6.26686416 15.4285714,6.07178571 L15.4285714,2.57142857 L11.9288571,2.57142857 C11.7337227,2.48272439 11.5346605,2.4029279 11.3322857,2.33228571 L9.909,0.909 L9,0 L8.091,0.909 L6.66835714,2.33228571 C6.46521429,2.403 6.26592857,2.48271429 6.07178571,2.57142857 L2.57142857,2.57142857 L2.57142857,6.07178571 C2.48271429,6.26592857 2.40364286,6.46392857 2.33228571,6.66835714 L0.909,8.091 L0,9 L0.909,9.909 L2.33228571,11.3322857 C2.403,11.5354286 2.48271429,11.7347143 2.57142857,11.9288571 L2.57142857,15.4285714 L6.07178571,15.4285714 C6.26592857,15.5179286 6.46521429,15.597 6.66835714,15.6683571 L9,18 L11.3322857,15.6683571 C11.5354286,15.597 11.7347143,15.5179286 11.9288571,15.4285714 L15.4285714,15.4285714 L15.4285714,11.9288571 C15.5172857,11.7347143 15.597,11.5354286 15.6683571,11.3322857 L17.091,9.909 L18,9 L17.091,8.091 Z" id="形状"></path>
                </g>
            </g>
        </g>
    </g>
</svg>