<?xml version="1.0" encoding="UTF-8"?>
<svg width="18px" height="16px" viewBox="0 0 18 16" version="1.1" xmlns="http://www.w3.org/2000/svg" xmlns:xlink="http://www.w3.org/1999/xlink">
    <!-- Generator: Sketch 60.1 (88133) - https://sketch.com -->
    <title>shanghu_home_daohang_icon1</title>
    <desc>Created with Sketch.</desc>
    <defs>
        <polygon id="path-1" points="0.00274843554 0.0126243641 17.9935917 0.0126243641 17.9935917 15.9974597 0.00274843554 15.9974597"></polygon>
    </defs>
    <g id="页面-1" stroke="none" stroke-width="1" fill="none" fill-rule="evenodd">
        <g id="商户后台首页2-无数据稿" transform="translate(-294.000000, -96.000000)">
            <g id="编组-6" transform="translate(281.000000, 79.000000)">
                <g id="shanghu_home_daohang_icon1" transform="translate(13.000000, 17.000000)">
                    <mask id="mask-2" fill="white">
                        <use xlink:href="#path-1"></use>
                    </mask>
                    <g id="Clip-2"></g>
                    <path d="M14.6858463,14.8305521 L5.93813917,14.8305521 L5.93813917,7.83833788 L15.8668851,7.83833788 L15.8668851,13.9883566 C15.8668851,14.4445815 15.3225146,14.8305521 14.6858463,14.8305521 M2.21941577,13.9883566 L2.21941577,7.83833788 L4.71087259,7.83833788 L4.71087259,14.8305521 L3.40978123,14.8305521 C2.76387635,14.8305521 2.21941577,14.4445815 2.21941577,13.9883566 M1.25052466,6.05739009 L2.40394393,1.54791754 C2.45929562,1.32862972 2.67155594,1.17066452 2.90219925,1.17066452 L14.7688175,1.17066452 C14.9995509,1.17066452 15.1933156,1.31106613 15.2579264,1.51285462 L16.7250728,6.0222415 C16.7711655,6.1714249 16.7435685,6.32930442 16.6512481,6.46090281 C16.5497587,6.59252262 16.4021091,6.66271272 16.2360541,6.66271272 L1.74877997,6.66271272 C1.59196145,6.66271272 1.44428936,6.59252262 1.34275494,6.47848782 C1.24128811,6.36445301 1.20440951,6.20648782 1.25052466,6.05739009 M17.9154383,5.68891888 L16.4482018,1.17944632 C16.217581,0.477566801 15.5531805,0.0126243641 14.7780541,0.0126243641 L2.90219925,0.0126243641 C2.09021677,0.0126243641 1.39817422,0.530257564 1.20440951,1.27589612 L0.0509001252,5.78536867 C-0.0782988736,6.28545971 0.0417536921,6.80311432 0.37386383,7.20664846 C0.540009011,7.40843695 0.752269337,7.56633788 0.982912641,7.67167657 L0.982912641,13.9883566 C0.982912641,15.0937703 2.07174368,15.9974597 3.40054468,15.9974597 L14.6766098,15.9974597 C16.0145347,15.9974597 17.0941292,15.0937703 17.0941292,13.9883566 L17.0941292,7.61905007 C17.306412,7.50490817 17.4909402,7.35581044 17.6385897,7.16280375 C17.9800491,6.73290281 18.0814934,6.19777028 17.9154383,5.68891888" id="Fill-1" fill="#0D69C5" mask="url(#mask-2)"></path>
                </g>
            </g>
        </g>
    </g>
</svg>