<?xml version="1.0" encoding="UTF-8"?>
<svg width="58px" height="58px" viewBox="0 0 58 58" version="1.1" xmlns="http://www.w3.org/2000/svg" xmlns:xlink="http://www.w3.org/1999/xlink">
    <!-- Generator: Sketch 60.1 (88133) - https://sketch.com -->
    <title>shanghu_home_icon7</title>
    <desc>Created with Sketch.</desc>
    <defs>
        <rect id="path-1" x="0" y="0" width="50" height="50" rx="10"></rect>
        <filter x="-14.0%" y="-10.0%" width="128.0%" height="128.0%" filterUnits="objectBoundingBox" id="filter-2">
            <feOffset dx="0" dy="2" in="SourceAlpha" result="shadowOffsetOuter1"></feOffset>
            <feGaussianBlur stdDeviation="2" in="shadowOffsetOuter1" result="shadowBlurOuter1"></feGaussianBlur>
            <feColorMatrix values="0 0 0 0 0.95923913   0 0 0 0 0.320602438   0 0 0 0 0.263918708  0 0 0 0.7 0" type="matrix" in="shadowBlurOuter1"></feColorMatrix>
        </filter>
    </defs>
    <g id="页面-1" stroke="none" stroke-width="1" fill="none" fill-rule="evenodd">
        <g id="商户后台首页2-无数据稿" transform="translate(-983.000000, -657.000000)">
            <g id="shanghu_home_icon7" transform="translate(987.000000, 659.000000)">
                <g id="矩形备份-17" opacity="0.7">
                    <use fill="black" fill-opacity="1" filter="url(#filter-2)" xlink:href="#path-1"></use>
                    <use fill="#EA4132" fill-rule="evenodd" xlink:href="#path-1"></use>
                </g>
                <g id="sub_account" transform="translate(12.000000, 12.000000)" fill="#FEF8F7" fill-rule="nonzero">
                    <path d="M8.66666667,2.16666667 C10.4585,2.16666667 11.9166667,3.62483333 11.9166667,5.41666667 C11.9166667,7.2085 10.4585,8.66666667 8.66666667,8.66666667 C6.87483333,8.66666667 5.41666667,7.2085 5.41666667,5.41666667 C5.41666667,3.62483333 6.87483333,2.16666667 8.66666667,2.16666667 M8.66666667,10.8333333 C11.6534167,10.8333333 14.0833333,8.40341667 14.0833333,5.41666667 C14.0833333,2.42991667 11.6534167,0 8.66666667,0 C5.67991667,0 3.25,2.42991667 3.25,5.41666667 C3.25,8.40341667 5.67991667,10.8333333 8.66666667,10.8333333 M19.5,7.58333326 C20.274269,7.58352684 20.9896198,7.99677323 21.3765867,8.66740659 C21.7635536,9.33803994 21.7633471,10.1641751 21.376045,10.8346149 C20.9887429,11.5050548 20.2731856,11.9179435 19.4989167,11.9177501 C18.3020006,11.9174508 17.3319509,10.9469161 17.33225,9.75 C17.3325492,8.5530839 18.3030839,7.5830342 19.5,7.58333326 M19.5,14.0833333 C21.8898333,14.0833333 23.8333333,12.1398333 23.8333333,9.75 C23.8333333,7.36016667 21.8898333,5.41666667 19.5,5.41666667 C17.1101667,5.41666667 15.1666667,7.36016667 15.1666667,9.75 C15.1666667,12.1398333 17.1101667,14.0833333 19.5,14.0833333 M21.8215833,16.25325 L17.1795,16.25325 C17.0798333,16.25325 16.9845,16.2673333 16.887,16.2749167 C16.0312926,14.2899902 14.0781843,13.0031013 11.9166667,13 L5.41666667,13 C2.431,13 0,15.4299167 0,18.4166667 L0,26 L2.16666667,26 L2.16666667,18.4166667 C2.16666667,16.6248333 3.62483333,15.1666667 5.41666667,15.1666667 L11.9166667,15.1666667 C13.7095833,15.1666667 15.1666667,16.6248333 15.1666667,18.4166667 L15.1666667,26 L17.3333333,26 L17.3333333,18.4199167 L21.8215833,18.4199167 C22.9309167,18.4199167 23.8333333,19.3223333 23.8333333,20.4305833 L23.8333333,26 L26,26 L26,20.4305833 C25.9976105,18.1240734 24.1280938,16.2550414 21.8215833,16.25325" id="形状"></path>
                </g>
            </g>
        </g>
    </g>
</svg>