<?xml version="1.0" encoding="UTF-8"?>
<svg width="58px" height="58px" viewBox="0 0 58 58" version="1.1" xmlns="http://www.w3.org/2000/svg" xmlns:xlink="http://www.w3.org/1999/xlink">
    <!-- Generator: Sketch 60.1 (88133) - https://sketch.com -->
    <title>shanghu_home_icon3</title>
    <desc>Created with Sketch.</desc>
    <defs>
        <rect id="path-1" x="0" y="0" width="50" height="50" rx="10"></rect>
        <filter x="-14.0%" y="-10.0%" width="128.0%" height="128.0%" filterUnits="objectBoundingBox" id="filter-2">
            <feOffset dx="0" dy="2" in="SourceAlpha" result="shadowOffsetOuter1"></feOffset>
            <feGaussianBlur stdDeviation="2" in="shadowOffsetOuter1" result="shadowBlurOuter1"></feGaussianBlur>
            <feColorMatrix values="0 0 0 0 0.95923913   0 0 0 0 0.320602438   0 0 0 0 0.263918708  0 0 0 0.7 0" type="matrix" in="shadowBlurOuter1"></feColorMatrix>
        </filter>
    </defs>
    <g id="页面-1" stroke="none" stroke-width="1" fill="none" fill-rule="evenodd">
        <g id="商户后台首页2-无数据稿" transform="translate(-983.000000, -501.000000)">
            <g id="shanghu_home_icon3" transform="translate(987.000000, 503.000000)">
                <g id="矩形备份-9" opacity="0.7">
                    <use fill="black" fill-opacity="1" filter="url(#filter-2)" xlink:href="#path-1"></use>
                    <use fill="#EA4132" fill-rule="evenodd" xlink:href="#path-1"></use>
                </g>
                <g id="notification" transform="translate(13.000000, 12.000000)" fill="#FFF1F1" fill-rule="nonzero">
                    <path d="M1.96354173,20.2222222 L1.96354173,18.694963 L3.69342194,16.9982222 L5.10913548,15.6096296 L5.1120808,15.6067407 L5.09931778,15.5942222 C4.33180641,14.381751 3.92573439,12.9827223 3.9270834,11.5555556 C3.92708347,7.30091753 7.44351364,3.85185197 11.7812501,3.85185197 C16.1189865,3.85185197 19.6354167,7.30091753 19.6354167,11.5555556 C19.6354167,13.0385185 19.2044193,14.4203704 18.4631824,15.5942222 L18.4504193,15.6067407 L18.4533647,15.6096296 L19.8690782,16.9982222 L21.5989584,18.694963 L21.5989584,20.2222222 L1.96354173,20.2222222 Z M11.7812501,24.0740741 C10.6968159,24.0740741 9.8177084,23.2118077 9.8177084,22.1481481 L13.7447917,22.1481481 C13.7447917,23.2118077 12.8656842,24.0740741 11.7812501,24.0740741 Z M23.2748412,17.6145185 L20.8488855,15.236 C21.3448605,14.0699893 21.599816,12.8189782 21.5989584,11.5555556 C21.5989584,6.5702963 17.7170365,2.45940741 12.7630209,1.97503704 L12.7630209,0 L10.7994792,0 L10.7994792,1.97503704 C5.84546361,2.45940741 1.96354173,6.5702963 1.96354173,11.5555556 C1.96354173,12.8594074 2.23156517,14.1016296 2.71361465,15.236 L0.287658922,17.6145185 C0.103379283,17.795363 -5.32907052e-15,18.0406109 -5.32907052e-15,18.2962963 L-5.32907052e-15,22.1481481 L7.85416673,22.1481481 C7.85416673,24.2724444 9.61546361,26 11.7812501,26 C13.9470365,26 15.7083334,24.2724444 15.7083334,22.1481481 L23.5625001,22.1481481 L23.5625001,18.2962963 C23.5625001,18.0305185 23.4525417,17.7897778 23.2748412,17.6145185 Z" id="形状"></path>
                </g>
            </g>
        </g>
    </g>
</svg>