<?xml version="1.0" encoding="UTF-8"?>
<svg width="58px" height="58px" viewBox="0 0 58 58" version="1.1" xmlns="http://www.w3.org/2000/svg" xmlns:xlink="http://www.w3.org/1999/xlink">
    <!-- Generator: Sketch 60.1 (88133) - https://sketch.com -->
    <title>shanghu_home_icon4</title>
    <desc>Created with Sketch.</desc>
    <defs>
        <rect id="path-1" x="0" y="0" width="50" height="50" rx="10"></rect>
        <filter x="-14.0%" y="-10.0%" width="128.0%" height="128.0%" filterUnits="objectBoundingBox" id="filter-2">
            <feOffset dx="0" dy="2" in="SourceAlpha" result="shadowOffsetOuter1"></feOffset>
            <feGaussianBlur stdDeviation="2" in="shadowOffsetOuter1" result="shadowBlurOuter1"></feGaussianBlur>
            <feColorMatrix values="0 0 0 0 0.263723118   0 0 0 0 0.792770607   0 0 0 0 0.410433766  0 0 0 0.7 0" type="matrix" in="shadowBlurOuter1"></feColorMatrix>
        </filter>
        <polygon id="path-3" points="0 2.5317965e-05 25.9849831 2.5317965e-05 25.9849831 22.7451787 0 22.7451787"></polygon>
    </defs>
    <g id="页面-1" stroke="none" stroke-width="1" fill="none" fill-rule="evenodd">
        <g id="商户后台首页2-无数据稿" transform="translate(-1193.000000, -501.000000)">
            <g id="shanghu_home_icon4" transform="translate(1197.000000, 503.000000)">
                <g id="矩形备份-10" opacity="0.7">
                    <use fill="black" fill-opacity="1" filter="url(#filter-2)" xlink:href="#path-1"></use>
                    <use fill="#32A953" fill-rule="evenodd" xlink:href="#path-1"></use>
                </g>
                <g id="编组" transform="translate(12.000000, 14.000000)">
                    <mask id="mask-4" fill="white">
                        <use xlink:href="#path-3"></use>
                    </mask>
                    <g id="Clip-2"></g>
                    <path d="M5.33258577,17.2449593 C6.49123967,17.2449593 7.66604131,17.2458274 8.82522873,17.2476358 C8.82131628,15.7100758 8.82156525,14.1484637 8.82181423,12.6376322 L8.82184979,10.5213759 C8.82170752,8.97846292 8.82156525,7.38372047 8.8243751,5.81364495 C8.53079918,5.81567039 8.22260492,5.81664694 7.88268427,5.81664694 C7.53326703,5.81664694 7.18374309,5.81559805 6.83429029,5.81422365 L6.83421915,5.81422365 C6.80110561,5.81422365 6.79907825,5.81628525 6.78606047,5.82952293 C5.18273899,7.46325505 3.52766648,9.14621252 1.86700985,10.8315209 C1.85146676,10.8473266 1.84904815,10.8498222 1.84908372,10.8794442 C1.85079097,12.6332558 1.85217811,14.9369736 1.84783885,17.2476358 C3.0048922,17.2458274 4.17674172,17.2449593 5.33258577,17.2449593 M10.6688101,1.87728009 C10.6718689,6.86528088 10.6718689,12.0356072 10.6688101,17.2483592 C12.9026405,17.2463699 15.1674503,17.2453572 17.4008895,17.2453572 C19.6343286,17.2453572 21.8989962,17.2463699 24.1330399,17.2483592 C24.1299811,15.1281243 24.130159,12.9735293 24.1302657,10.8893906 L24.1302657,8.2103882 C24.1301234,6.13464058 24.1299811,3.98894304 24.1328977,1.87728009 C21.8990673,1.87926936 19.6344353,1.88028207 17.4008895,1.88028207 C15.1674503,1.88028207 12.9027472,1.87926936 10.6688101,1.87728009 M17.4275297,19.1237694 C17.7337677,20.153017 18.6599866,20.8617391 19.7196555,20.8617391 C20.7797513,20.861703 21.7060769,20.1529446 22.0122438,19.1237694 C21.69249,19.1256501 21.3464517,19.126482 20.9092889,19.126482 C20.7110345,19.126482 19.9183368,19.125831 19.7202246,19.125831 C19.5220769,19.125831 18.7293436,19.126482 18.5310892,19.126482 C18.0924681,19.126482 17.7456829,19.125614 17.4275297,19.1237694 M3.65457209,19.123914 C3.95814254,20.1505213 4.87984432,20.8587372 5.93830397,20.8617391 L5.9450974,20.8617391 C7.00686484,20.861703 7.93418632,20.1531616 8.241029,19.123914 C7.82346402,19.126048 7.41991272,19.1263735 7.10745034,19.1263735 C6.91360629,19.1263735 6.13805226,19.125831 5.94424378,19.125831 L4.80248454,19.1263012 C4.48529166,19.1263012 4.07619179,19.1260118 3.65457209,19.123914 M5.91290862,22.7451787 C4.92611792,22.7451787 3.9645803,22.3829148 3.20538741,21.7250818 C2.44121505,21.0629446 1.93117401,20.1395261 1.76734911,19.122829 C1.62429576,19.1263735 1.46939836,19.1280011 1.28295239,19.1280011 C1.16404952,19.1280011 1.04518222,19.12735 0.926243776,19.126699 C0.83540383,19.1262288 0.744528317,19.1257225 0.653652804,19.1255054 C0.275745828,19.1244927 0.00151874145,18.8483461 0.00151874145,18.4688659 C0.00130533516,17.5197678 0.00126976744,16.5705611 0.00123419973,15.6214267 C0.0011630643,13.8651919 0.00109192886,12.108957 -1.10224281e-05,10.3527944 C-1.10224281e-05,10.1630182 0.0669989056,9.99845139 0.199666484,9.86383215 L0.72674446,9.32821252 C2.42286211,7.60471014 4.11890862,5.88128009 5.81431491,4.156982 C5.96003584,4.00876339 6.13812339,3.93360521 6.34366922,3.93360521 C6.64055294,3.93458176 6.9340933,3.93472643 7.22774036,3.93472643 L7.55183338,3.93472643 C7.96043529,3.93472643 8.39407688,3.93494344 8.82455294,3.93769225 C8.82106731,3.07999193 8.82145855,2.20934328 8.82181423,1.36672524 L8.82202763,0.690699404 C8.82202763,0.26467039 9.08128071,2.5317965e-05 9.49852558,2.5317965e-05 L25.3046049,2.5317965e-05 C25.7210317,2.5317965e-05 25.9797157,0.265176749 25.9797157,0.692001471 C25.979858,3.65304599 25.979858,6.61401816 25.979858,9.574918 C25.979858,10.2238898 25.9796802,10.8728616 25.9795379,11.5218333 C25.9789688,13.7807745 25.9783997,16.1166461 25.9849831,18.4138174 C25.9855488,18.6145889 25.9137021,18.7987952 25.7825639,18.932474 C25.656832,19.0606915 25.4861781,19.1312924 25.302044,19.1312924 L25.3020085,19.1312924 C25.2920851,19.1312924 25.282055,19.1311116 25.2719893,19.1307137 C25.1303231,19.1249267 24.973754,19.1222141 24.7791986,19.1222141 C24.6819565,19.1222141 24.5846077,19.1228651 24.48733,19.12348 C24.3890919,19.1240949 24.2908539,19.1247459 24.1926159,19.1247459 C24.0837075,19.1247459 23.9877103,19.123914 23.8998224,19.1222503 C23.7149415,20.2809812 23.1461781,21.2219776 22.2091111,21.9193067 C21.4840276,22.4589411 20.6307937,22.744166 19.7417431,22.744166 C17.6740495,22.744166 15.9094996,21.2552165 15.5460331,19.2037018 C15.5414449,19.1776966 15.5365365,19.1499554 15.5319127,19.1263012 C15.5070509,19.125831 15.4776008,19.125831 15.4500003,19.125831 L13.4340577,19.126048 C12.4467691,19.126048 11.2822821,19.125614 10.1271138,19.1222864 C9.96079918,20.0117066 9.61845992,20.7559101 9.10941477,21.3343532 C8.59019726,21.9244065 7.89427934,22.3459506 7.04097428,22.5873393 C6.67085663,22.6920833 6.29131354,22.7451787 5.91290862,22.7451787" id="Fill-1" fill="#E9FFEF" mask="url(#mask-4)"></path>
                </g>
            </g>
        </g>
    </g>
</svg>