<?xml version="1.0" encoding="UTF-8"?>
<svg width="58px" height="58px" viewBox="0 0 58 58" version="1.1" xmlns="http://www.w3.org/2000/svg" xmlns:xlink="http://www.w3.org/1999/xlink">
    <!-- Generator: Sketch 60.1 (88133) - https://sketch.com -->
    <title>shanghu_home_icon1</title>
    <desc>Created with Sketch.</desc>
    <defs>
        <rect id="path-1" x="0" y="0" width="50" height="50" rx="10"></rect>
        <filter x="-14.0%" y="-10.0%" width="128.0%" height="128.0%" filterUnits="objectBoundingBox" id="filter-2">
            <feOffset dx="0" dy="2" in="SourceAlpha" result="shadowOffsetOuter1"></feOffset>
            <feGaussianBlur stdDeviation="2" in="shadowOffsetOuter1" result="shadowBlurOuter1"></feGaussianBlur>
            <feColorMatrix values="0 0 0 0 0.994084013   0 0 0 0 0.783778987   0 0 0 0 0.135625791  0 0 0 0.7 0" type="matrix" in="shadowBlurOuter1"></feColorMatrix>
        </filter>
    </defs>
    <g id="页面-1" stroke="none" stroke-width="1" fill="none" fill-rule="evenodd">
        <g id="商户后台首页2-交互稿备份-2" transform="translate(-565.000000, -501.000000)">
            <g id="shanghu_home_icon1" transform="translate(569.000000, 503.000000)">
                <g id="矩形">
                    <use fill="black" fill-opacity="1" filter="url(#filter-2)" xlink:href="#path-1"></use>
                    <use fill="#F4B900" fill-rule="evenodd" xlink:href="#path-1"></use>
                </g>
                <g id="发布" transform="translate(10.000000, 12.000000)" fill="#FFFBEF" fill-rule="nonzero">
                    <path d="M25.9395703,1.07224609 C25.9395703,0.487753906 25.4614648,0.0096484375 24.8769727,0.0096484375 C24.6779102,0.0096484375 24.5052539,0.06296875 24.3458008,0.155644531 L0.596171875,12.6942969 C0.250859375,12.8669531 0.0251367188,13.2521289 0.0251367188,13.6507617 C0.0251367188,14.0491406 0.250859375,14.4076562 0.609628906,14.5937695 L6.77269531,17.9676758 C6.93189453,18.0339453 7.10480469,18.0738086 7.25080078,18.0738086 C7.66263672,18.0738086 8.02140625,17.847832 8.20726563,17.4893164 C8.45964844,16.9713477 8.24712891,16.320332 7.72916016,16.0547461 L3.42570313,13.6241016 L20.6666992,4.48576172 L9.82744141,17.6622266 C9.66824219,17.8747461 9.57505859,18.1139258 9.57505859,18.3528516 L9.57505859,24.8746875 C9.57505859,25.4457227 10.0666211,25.9372852 10.6376563,25.9372852 C11.2086914,25.9372852 11.7002539,25.4457227 11.7002539,24.8746875 L11.7002539,18.7512305 L23.2430859,4.69828125 L21.0117578,22.576582 L14.5295312,19.4817188 C14.3967383,19.4019922 14.2372852,19.375332 14.0646289,19.375332 C13.652793,19.375332 13.2942773,19.6010547 13.108418,19.9730273 C12.9888281,20.2254102 12.962168,20.5176563 13.0550977,20.7832422 C13.1480273,21.0622852 13.3341406,21.2748047 13.5862695,21.3943945 L21.4098828,25.0869531 C21.5426758,25.1666797 21.7021289,25.1930859 21.8747852,25.1930859 C22.0342383,25.1930859 22.2068945,25.1532227 22.3663477,25.0734961 C22.6717969,24.914043 22.8843164,24.6217969 22.9241797,24.2896875 L25.9395703,1.20427734 L25.9395703,1.07224609 L25.9395703,1.07224609 Z" id="路径"></path>
                </g>
            </g>
        </g>
    </g>
</svg>