<?xml version="1.0" encoding="UTF-8"?>
<svg width="58px" height="58px" viewBox="0 0 58 58" version="1.1" xmlns="http://www.w3.org/2000/svg" xmlns:xlink="http://www.w3.org/1999/xlink">
    <!-- Generator: Sketch 60.1 (88133) - https://sketch.com -->
    <title>shanghu_home_icon8</title>
    <desc>Created with Sketch.</desc>
    <defs>
        <rect id="path-1" x="0" y="0" width="50" height="50" rx="10"></rect>
        <filter x="-14.0%" y="-10.0%" width="128.0%" height="128.0%" filterUnits="objectBoundingBox" id="filter-2">
            <feOffset dx="0" dy="2" in="SourceAlpha" result="shadowOffsetOuter1"></feOffset>
            <feGaussianBlur stdDeviation="2" in="shadowOffsetOuter1" result="shadowBlurOuter1"></feGaussianBlur>
            <feColorMatrix values="0 0 0 0 0.263723118   0 0 0 0 0.792770607   0 0 0 0 0.410433766  0 0 0 0.7 0" type="matrix" in="shadowBlurOuter1"></feColorMatrix>
        </filter>
    </defs>
    <g id="页面-1" stroke="none" stroke-width="1" fill="none" fill-rule="evenodd">
        <g id="商户后台首页2-无数据稿" transform="translate(-1193.000000, -657.000000)">
            <g id="shanghu_home_icon8" transform="translate(1197.000000, 659.000000)">
                <g id="矩形备份-18" opacity="0.7">
                    <use fill="black" fill-opacity="1" filter="url(#filter-2)" xlink:href="#path-1"></use>
                    <use fill="#32A953" fill-rule="evenodd" xlink:href="#path-1"></use>
                </g>
                <path d="M25.9285714,16.6428571 L24.0714286,16.6428571 L24.0714286,25 C24.0714286,25.2562857 24.1754286,25.4884286 24.3435,25.6574286 L29.9149286,31.2279286 L31.2279286,29.9149286 L25.9285714,24.6155714 L25.9285714,16.6428571 Z" id="路径" fill="#E9FFEF" fill-rule="nonzero"></path>
                <path d="M25,36.1428571 C18.8556429,36.1428571 13.8571429,31.1443571 13.8571429,25 C13.8571429,18.8556429 18.8556429,13.8571429 25,13.8571429 C31.1443571,13.8571429 36.1428571,18.8556429 36.1428571,25 C36.1428571,31.1443571 31.1443571,36.1428571 25,36.1428571 M25,12 C17.8202857,12 12,17.8202857 12,25 C12,32.1797143 17.8202857,38 25,38 C32.1797143,38 38,32.1797143 38,25 C38,17.8202857 32.1797143,12 25,12" id="形状" fill="#E9FFEF" fill-rule="nonzero"></path>
            </g>
        </g>
    </g>
</svg>